<?xml version="1.0" standalone="no"?><!-- Generator: Gravit.io --><svg xmlns="http://www.w3.org/2000/svg" xmlns:xlink="http://www.w3.org/1999/xlink" style="isolation:isolate" viewBox="0 0 350 350" width="350" height="350"><defs><clipPath id="_clipPath_Uuy6lAyTV1NWKq1oBhAkSVSZPhuhBv87"><rect width="350" height="350"/></clipPath></defs><g clip-path="url(#_clipPath_Uuy6lAyTV1NWKq1oBhAkSVSZPhuhBv87)"><circle vector-effect="non-scaling-stroke" cx="173.7" cy="173.7" r="133.7" fill="rgb(0,82,238)"/><path d=" M 229.2 204 C 229.2 204 251.1 233.9 285.4 220.1 C 285.4 220.1 299.8 217.9 300.7 228.2 C 300.7 228.2 303 241.5 295.5 243 C 295.5 243 290.1 246.5 276 243.2 C 276 243.2 221.3 233.6 219.3 218.2 L 229.2 204 L 229.2 204 Z " fill="rgb(18,137,255)"/><path d=" M 284.2 223.6 C 284.2 223.6 299.5 221.1 300.5 232.5 C 300.8 230 300.6 228.1 300.6 228.1 C 299.8 217.7 285.3 220 285.3 220 C 251.1 233.9 229.1 203.9 229.1 203.9 L 226.4 207.7 C 232.2 214.9 253.4 237.1 284.2 223.6 L 284.2 223.6 Z " fill="rgb(31,154,255)"/><path d=" M 266.9 229.4 C 266.9 229.4 267.1 227 261.8 223.9 C 250.4 217.2 228.7 204.2 230.2 182.8 L 155.5 174.7 L 151.1 202.9 L 191.3 243.8 C 191.3 243.8 239 249.3 266.9 229.4 Z " fill="rgb(255,141,184)"/><path d=" M 156.1 196.2 L 184.7 225.3 C 184.7 225.3 229.7 242.6 257.3 231.1 C 216.1 206.3 183.6 201 156.1 196.2 L 156.1 196.2 Z " fill="rgb(248,106,154)"/><path d=" M 166.9 117.1 C 166.9 117.1 147.5 85.3 114.8 77.1 C 114.8 77.1 110.3 76.3 107.4 77.4 C 105.5 78.3 104.7 79.8 105.2 82.6 C 105.2 82.6 105.5 84.3 106.6 86.4 C 107.3 87.8 108.4 89.3 109.8 91.1 C 109.8 91.1 112.2 94.1 113.1 97.2 C 113.9 99 114.3 101.1 115 103.3 C 116.7 110.1 118.3 119.8 117.7 131.1 L 166.9 117.1 L 166.9 117.1 Z " fill="rgb(31,154,255)"/><path d=" M 162 118.5 C 143.8 113.5 124.1 110.3 116 109.1 C 117 115.7 117.9 122.8 117.5 131.3 L 162 118.5 Z " fill="rgb(18,137,255)"/><path d=" M 207.2 219.6 C 205.3 218.8 202.5 220.5 199.7 222.4 C 199.1 216.9 197.4 216.2 197.4 216.2 C 195.6 215.4 192.3 217.2 189.6 219 C 190.1 212 187.1 211.3 187.1 211.3 C 184.6 210.4 179.7 212.7 177.3 214.2 C 185.9 224.8 198.7 228.9 210 229 C 210.6 220.7 207.2 219.6 207.2 219.6 L 207.2 219.6 Z " fill="rgb(255,255,255)"/><path d=" M 53.2 148.6 C 44.2 124.8 46 103.5 46 103.5 C 45.7 90.3 62.6 124.8 62.6 124.8 C 66.1 131.6 68.3 135.3 72.6 136.2 C 76 136.9 83.3 135.3 83.3 135.3 C 103.8 129.7 133.3 119.4 155.2 116.2 C 190.2 111.2 217.9 110.6 217.9 110.6 C 251.2 110.1 271.6 112.6 285.4 116 C 301 119.8 306.8 126 306.8 126 C 323.4 143.3 300.5 161.9 300.5 161.9 C 297.1 165.5 295 168.4 293.6 171.3 C 290.7 177.2 290.7 181.9 290.7 181.9 C 290.2 186.8 289.4 191.3 288.4 195.4 C 285.4 196.7 275.2 200.7 258.5 201.8 C 239.6 203 210.8 203.1 178.8 186 C 178.8 186 168 180.1 164.3 183.8 C 164.3 183.8 157.8 189.1 170.7 206 C 170.7 206 201.3 243.6 267.9 229.3 L 238.9 245.1 C 165.9 260.1 121.3 223 121.3 223 C 104.4 211.3 88 185.1 82.2 177.4 C 71.5 163.2 65.6 163.6 65.6 163.6 C 62.2 166.1 55.4 172.7 52.6 175.8 C 48.6 180.1 48.7 176.1 48.7 176.1 C 47.3 166.6 53.2 148.6 53.2 148.6 L 53.2 148.6 Z " fill="rgb(18,137,255)"/><path d=" M 80.2 152.1 C 74.3 152.3 71.2 152 66.5 149.6 C 66.5 149.6 54.1 145 46 103.1 C 46 90.8 62.6 124.7 62.6 124.7 C 66.1 131.5 68.3 135.2 72.6 136.1 C 76 136.8 83.3 135.2 83.3 135.2 C 103.8 129.6 133.3 119.3 155.2 116.1 C 190.2 111.1 217.9 110.5 217.9 110.5 C 251.2 110 271.6 112.5 285.4 115.9 C 301 119.7 306.8 125.9 306.8 125.9 C 311 130.2 312.6 134.7 312.8 138.8 C 292.2 138.7 171.2 144.5 80.2 152.1 L 80.2 152.1 Z " fill="rgb(31,154,255)"/><path d=" M 166 154.3 C 167 168.3 178.9 178.8 192.6 177.8 C 206.3 176.8 216.6 164.7 215.5 150.7 C 214.5 136.7 202.6 126.2 188.9 127.2 C 175.3 128.2 165 140.4 166 154.3 L 166 154.3 Z " fill="rgb(255,255,255)"/><path d=" M 168.9 151.7 C 169.6 162 178.4 169.8 188.5 169.1 C 198.6 168.4 206.2 159.4 205.5 149.1 C 204.8 138.8 196 131 185.9 131.7 C 175.7 132.4 168.1 141.4 168.9 151.7 L 168.9 151.7 Z " fill="rgb(255,216,0)"/><path d=" M 172 150.8 C 172.5 158.2 178.8 163.8 186 163.2 C 193.2 162.7 198.6 156.3 198.1 148.9 C 197.6 141.5 191.3 135.9 184.1 136.5 C 176.9 137 171.5 143.4 172 150.8 L 172 150.8 Z " fill="rgb(53,53,109)"/><path d=" M 187.7 152 C 187.9 154.3 189.9 156 192.2 155.9 C 194.5 155.7 196.2 153.7 196.1 151.4 C 195.9 149.1 193.9 147.4 191.6 147.5 C 189.2 147.7 187.5 149.7 187.7 152 Z " fill="rgb(255,255,255)"/><path d=" M 289.3 194.9 C 290.3 191.8 290.4 187 291.5 181.1 C 292.1 177.6 293.2 172.7 294.7 169.5 C 294.7 169.5 278 169.5 255.4 171.4 C 238.1 172.8 213.9 178.2 191.1 191.8 C 218.2 203 241.7 203.2 258.8 202.2 C 282.5 200.8 289.3 194.9 289.3 194.9 L 289.3 194.9 Z  M 268.1 229 C 265.1 229.6 259.8 230.2 257 230.6 C 226.1 235 204.5 228.5 190.5 221.1 C 179.2 215.1 172.9 208.5 171.1 206.6 C 168.8 208.5 166.4 210.6 164 212.7 C 154.8 220.8 144.5 229.1 129.7 228.9 C 129.7 228.9 153 250.1 190.5 253.5 C 206.3 254.9 224.7 254.5 244.6 248 C 251.7 245.6 255.7 243.5 260 240.1 C 266 235.5 268.1 229 268.1 229 L 268.1 229 Z " fill="rgb(222,235,243)"/><path d=" M 253.9 231 C 253.9 231 269.1 229.6 261.1 224.5 C 261.1 224.5 235.9 211.1 232.1 195.1 L 235.7 194.8 C 235.7 194.8 240.9 211.3 266.3 224.1 C 266.3 224.1 273.6 228.2 260.8 235.8 L 253.9 231 L 253.9 231 Z " fill="rgb(222,235,243)"/><g opacity="0.26"><path d=" M 154.3 168.8 C 150.6 149.5 154.2 137.6 154.3 137.1 L 156.6 137.8 C 156.6 137.9 153.1 149.7 156.6 168.4 L 154.3 168.8 L 154.3 168.8 Z  M 145.7 168.8 C 142.1 149.5 145.6 137.6 145.7 137.1 L 148 137.8 C 148 137.9 144.5 149.7 148 168.4 L 145.7 168.8 L 145.7 168.8 Z  M 137.2 168.8 C 133.6 149.5 137.1 137.6 137.2 137.1 L 139.5 137.8 C 139.5 137.9 136 149.7 139.5 168.4 L 137.2 168.8 L 137.2 168.8 Z " fill="rgb(10,38,136)"/></g><path d=" M 73.2 137.5 C 76.3 136.5 76.1 132.8 79.7 132.6 C 82 132.5 86.6 135.9 87.9 137.5" fill="rgb(31,154,255)"/><path d=" M 71 164.6 C 71 174 76.9 173.7 85.1 172.2 L 71 164.6 Z  M 122.9 200.3 C 122.9 200.3 82.8 209.6 87.5 239 C 87.5 239 92.2 267.8 131.5 264.9 C 131.5 264.9 147.7 264 149.2 252.6 C 149.2 252.6 150.8 245.2 146.4 238.6 C 144.5 235.8 141.4 233.6 136.5 233.6 C 136.5 233.6 128.3 233.6 120.1 240.2 C 120.1 240.2 110.7 240.3 110.4 232.1 C 110.4 232.1 109 222.7 130.3 221.7 L 122.9 200.3 L 122.9 200.3 Z " fill="rgb(18,137,255)"/><path d=" M 118 210.5 C 106.9 214.9 103 220.4 102 225.2 C 100.4 232.5 104.8 236.8 104.8 236.8 C 111.3 242.6 120 241.4 120 241.4 C 119.5 231.2 125.2 230.7 125.2 230.7 C 129.1 230.2 131.1 234.4 131.1 234.4 C 138.5 231.8 142.6 235 142.6 235 C 142.9 246.6 125.4 248.8 125.4 248.8 C 107 251.5 98.7 242 98.7 242 C 90.9 234.8 92.1 224.4 96.9 217.8 C 102.8 209.8 112.9 205.4 112.9 205.4 C 112.9 205.4 121.1 201.3 122.8 204.1 C 122.9 204.2 125.8 207.5 118 210.5 L 118 210.5 Z " fill="rgb(31,154,255)"/><path d=" M 280.5 226.2 C 280.5 226.2 281.3 218.5 280.9 210.8 C 280.9 210.8 280.4 205.4 285.4 206.5 C 285.4 206.5 289.5 207.6 289.5 213.9 C 289.5 213.9 289.8 222.2 287.7 227.5 L 280.5 226.2 L 280.5 226.2 Z " fill="rgb(18,137,255)"/><path d=" M 282.1 224.4 C 282.3 221.5 282.2 219.6 281.9 215.7 C 281.9 215.7 281.6 211.8 284.5 211.3 C 285.7 211.1 286.9 211.5 287.8 212.2 C 288.3 212.6 288.9 213.2 289.4 214.1 L 289.4 214 C 289.4 210.1 287.8 208.2 286.6 207.3 C 285.9 206.8 285 206.5 284.1 206.5 C 280.4 206.4 280.8 210.9 280.8 210.9 C 280.9 220 280.3 225.2 280.3 225.2 L 282.1 224.4 L 282.1 224.4 Z " fill="rgb(31,154,255)"/><circle vector-effect="non-scaling-stroke" cx="157.5" cy="194.00000000000017" r="9.599999999999994" fill="rgb(127,221,255)"/><path d=" M 166 191 C 166 191.2 166.1 191.4 166.1 191.5 C 166.1 196.5 162 200.6 157 200.6 C 153.1 200.6 149.7 198.1 148.5 194.5 C 148.8 199.3 152.7 203 157.5 203 C 162.5 203 166.6 199 166.6 193.9 C 166.6 192.9 166.4 191.9 166 191 Z " fill="rgb(199,255,255)"/><path d=" M 150.9 190.7 C 150.9 193.4 153.1 195.5 155.7 195.5 C 158.4 195.5 160.5 193.3 160.5 190.7 C 160.5 188 158.4 185.9 155.7 185.9 C 153.1 185.9 150.9 188.1 150.9 190.7 Z " fill="rgb(255,255,255)"/><circle vector-effect="non-scaling-stroke" cx="140.1" cy="186.39999999999986" r="7.199999999999989" fill="rgb(127,221,255)"/><path d=" M 146.4 184.1 L 146.4 184.5 C 146.4 188.2 143.4 191.3 139.6 191.3 C 136.6 191.3 134.2 189.4 133.2 186.8 C 133.4 190.4 136.3 193.2 139.9 193.2 C 143.6 193.2 146.7 190.2 146.7 186.4 C 146.9 185.6 146.7 184.9 146.4 184.1 L 146.4 184.1 Z " fill="rgb(199,255,255)"/><path d=" M 135.1 184 C 135.1 186 136.7 187.6 138.7 187.6 C 140.7 187.6 142.3 186 142.3 184 C 142.3 182 140.7 180.4 138.7 180.4 C 136.7 180.4 135.1 182 135.1 184 Z " fill="rgb(255,255,255)"/><circle vector-effect="non-scaling-stroke" cx="124.50000000000003" cy="180.20000000000013" r="5.199999999999996" fill="rgb(127,221,255)"/><path d=" M 129.1 178.6 L 129.1 178.9 C 129.1 181.6 126.9 183.8 124.2 183.8 C 122.1 183.8 120.3 182.4 119.6 180.5 C 119.7 183.1 121.9 185.1 124.5 185.1 C 127.2 185.1 129.4 182.9 129.4 180.2 C 129.4 179.6 129.3 179.1 129.1 178.6 L 129.1 178.6 Z " fill="rgb(199,255,255)"/><path d=" M 121 178.5 C 121 179.9 122.2 181.1 123.6 181.1 C 125 181.1 126.2 179.9 126.2 178.5 C 126.2 177.1 125 175.9 123.6 175.9 C 122.1 175.9 121 177 121 178.5 Z " fill="rgb(255,255,255)"/><circle vector-effect="non-scaling-stroke" cx="112.60000000000016" cy="181.8" r="4.099999999999994" fill="rgb(127,221,255)"/><path d=" M 116.2 180.5 L 116.2 180.7 C 116.2 182.8 114.5 184.5 112.4 184.5 C 110.7 184.5 109.3 183.4 108.8 181.9 C 108.9 183.9 110.6 185.5 112.6 185.5 C 114.7 185.5 116.4 183.8 116.4 181.7 C 116.4 181.3 116.3 180.9 116.2 180.5 Z " fill="rgb(199,255,255)"/><path d=" M 109.8 180.4 C 109.8 181.5 110.7 182.4 111.8 182.4 C 112.9 182.4 113.8 181.5 113.8 180.4 C 113.8 179.3 112.9 178.4 111.8 178.4 C 110.7 178.4 109.8 179.3 109.8 180.4 Z " fill="rgb(255,255,255)"/><circle vector-effect="non-scaling-stroke" cx="99.60000000000015" cy="188.59999999999977" r="4.099999999999994" fill="rgb(127,221,255)"/><path d=" M 103.2 187.3 L 103.2 187.5 C 103.2 189.6 101.5 191.3 99.4 191.3 C 97.7 191.3 96.3 190.2 95.8 188.7 C 95.9 190.7 97.6 192.3 99.6 192.3 C 101.7 192.3 103.4 190.6 103.4 188.5 C 103.5 188.2 103.4 187.8 103.2 187.3 Z " fill="rgb(199,255,255)"/><path d=" M 96.8 187.2 C 96.8 188.3 97.7 189.2 98.8 189.2 C 99.9 189.2 100.8 188.3 100.8 187.2 C 100.8 186.1 99.9 185.2 98.8 185.2 C 97.8 185.2 96.8 186.1 96.8 187.2 Z " fill="rgb(255,255,255)"/><circle vector-effect="non-scaling-stroke" cx="82.50000000000004" cy="191.60000000000014" r="3.5" fill="rgb(127,221,255)"/><path d=" M 85.6 190.4 L 85.6 190.6 C 85.6 192.4 84.1 193.9 82.3 193.9 C 80.9 193.9 79.7 193 79.2 191.7 C 79.3 193.4 80.7 194.8 82.5 194.8 C 84.3 194.8 85.8 193.3 85.8 191.5 C 85.8 191.2 85.7 190.8 85.6 190.4 Z " fill="rgb(199,255,255)"/><path d=" M 80.1 190.4 C 80.1 191.4 80.9 192.1 81.8 192.1 C 82.8 192.1 83.5 191.3 83.5 190.4 C 83.5 189.4 82.7 188.7 81.8 188.7 C 80.9 188.6 80.1 189.4 80.1 190.4 Z " fill="rgb(255,255,255)"/><circle vector-effect="non-scaling-stroke" cx="91.8" cy="192.5" r="2" fill="rgb(127,221,255)"/><path d=" M 93.5 191.9 L 93.5 192 C 93.5 193 92.7 193.9 91.6 193.9 C 90.8 193.9 90.1 193.4 89.9 192.7 C 90 193.7 90.8 194.4 91.7 194.4 C 92.7 194.4 93.6 193.6 93.6 192.5 C 93.6 192.3 93.6 192.1 93.5 191.9 Z " fill="rgb(199,255,255)"/><circle vector-effect="non-scaling-stroke" cx="91.4" cy="191.8" r="1" fill="rgb(255,255,255)"/><circle vector-effect="non-scaling-stroke" cx="104.3" cy="182.4" r="2" fill="rgb(127,221,255)"/><path d=" M 106 181.8 L 106 181.9 C 106 182.9 105.2 183.8 104.1 183.8 C 103.3 183.8 102.6 183.3 102.4 182.6 C 102.5 183.6 103.3 184.3 104.2 184.3 C 105.2 184.3 106.1 183.5 106.1 182.4 C 106.1 182.2 106.1 182 106 181.8 Z " fill="rgb(199,255,255)"/><circle vector-effect="non-scaling-stroke" cx="103.9" cy="181.7" r="1" fill="rgb(255,255,255)"/><circle vector-effect="non-scaling-stroke" cx="118.4" cy="186.5" r="2" fill="rgb(127,221,255)"/><path d=" M 120.1 185.9 L 120.1 186 C 120.1 187 119.3 187.9 118.2 187.9 C 117.4 187.9 116.7 187.4 116.5 186.7 C 116.6 187.7 117.4 188.4 118.3 188.4 C 119.3 188.4 120.2 187.6 120.2 186.5 C 120.3 186.3 120.2 186.1 120.1 185.9 Z " fill="rgb(199,255,255)"/><circle vector-effect="non-scaling-stroke" cx="118" cy="185.8" r="1" fill="rgb(255,255,255)"/><circle vector-effect="non-scaling-stroke" cx="74.1" cy="189.1" r="2" fill="rgb(127,221,255)"/><path d=" M 75.8 188.5 L 75.8 188.6 C 75.8 189.6 75 190.5 73.9 190.5 C 73.1 190.5 72.4 190 72.2 189.3 C 72.3 190.3 73.1 191 74 191 C 75 191 75.9 190.2 75.9 189.1 C 75.9 188.9 75.9 188.7 75.8 188.5 Z " fill="rgb(199,255,255)"/><circle vector-effect="non-scaling-stroke" cx="73.7" cy="188.4" r="1" fill="rgb(255,255,255)"/><circle vector-effect="non-scaling-stroke" cx="68" cy="185.09999999999985" r="2.5" fill="rgb(127,221,255)"/><path d=" M 70.1 184.3 L 70.1 184.4 C 70.1 185.7 69.1 186.7 67.8 186.7 C 66.8 186.7 65.9 186 65.6 185.1 C 65.7 186.3 66.7 187.3 67.9 187.3 C 69.2 187.3 70.2 186.3 70.2 185 C 70.3 184.8 70.2 184.6 70.1 184.3 Z " fill="rgb(199,255,255)"/><circle vector-effect="non-scaling-stroke" cx="67.5" cy="184.3000000000003" r="1.2000000000000028" fill="rgb(255,255,255)"/></g></svg>